<svg width="160" height="160" viewBox="0 0 160 160" fill="none" xmlns="http://www.w3.org/2000/svg">
<path d="M127.467 40.8542C121.992 38.3882 115.914 37 109.514 37H50.4862C44.0863 37 38.0085 38.3882 32.5335 40.8542C17.4876 47.6234 7 62.6155 7 80C7 97.3845 17.4876 112.377 32.5335 119.146C38.0085 121.612 44.0863 123 50.4862 123H109.514C115.914 123 121.992 121.612 127.467 119.146C142.512 112.377 153 97.3764 153 80C153 76.6521 152.703 73.394 151.968 70.2666C148.888 57.1445 139.614 46.3169 127.467 40.846V40.8542Z" fill="#2ECC71"/>
<path d="M130.093 66.5845C127.599 62.7549 124.106 59.7744 119.613 57.6514C115.121 55.5283 109.877 54.4668 103.882 54.4668C97.8866 54.4668 92.6346 55.5283 88.1505 57.6514C83.6582 59.7744 80.1651 62.7549 77.6713 66.5845C75.1774 70.4142 73.9304 74.8889 73.9304 80.0006C73.9304 85.1123 75.1774 89.5788 77.6713 93.4167C80.1651 97.2463 83.6582 100.227 88.1505 102.35C92.6429 104.473 97.8866 105.534 103.882 105.534C109.877 105.534 115.129 104.473 119.613 102.35C124.106 100.227 127.599 97.2463 130.093 93.4167C132.586 89.587 133.833 85.1123 133.833 80.0006C133.833 74.8889 132.586 70.4224 130.093 66.5845Z" fill="#0B3954"/>
</svg>
