<svg width="32" height="32" viewBox="0 0 32 32" fill="none" xmlns="http://www.w3.org/2000/svg">
<path d="M16.0049 2.66992C8.65734 2.66992 2.66992 8.65734 2.66992 16.0049C2.66992 23.3525 8.65734 29.3399 16.0049 29.3399C23.3525 29.3399 29.3399 23.3525 29.3399 16.0049C29.3399 8.65734 23.3525 2.66992 16.0049 2.66992ZM15.0048 10.6709C15.0048 10.1242 15.4582 9.6708 16.0049 9.6708C16.5517 9.6708 17.005 10.1242 17.005 10.6709V17.3384C17.005 17.8852 16.5517 18.3385 16.0049 18.3385C15.4582 18.3385 15.0048 17.8852 15.0048 17.3384V10.6709ZM17.2317 21.8457C17.1651 22.019 17.0717 22.1524 16.9517 22.2857C16.8184 22.4057 16.6717 22.4991 16.5117 22.5657C16.3516 22.6324 16.1783 22.6724 16.0049 22.6724C15.8316 22.6724 15.6582 22.6324 15.4982 22.5657C15.3382 22.4991 15.1915 22.4057 15.0581 22.2857C14.9381 22.1524 14.8448 22.019 14.7781 21.8457C14.7114 21.6856 14.6714 21.5123 14.6714 21.3389C14.6714 21.1656 14.7114 20.9922 14.7781 20.8322C14.8448 20.6722 14.9381 20.5255 15.0581 20.3921C15.1915 20.2721 15.3382 20.1788 15.4982 20.1121C15.8182 19.9788 16.1916 19.9788 16.5117 20.1121C16.6717 20.1788 16.8184 20.2721 16.9517 20.3921C17.0717 20.5255 17.1651 20.6722 17.2317 20.8322C17.2984 20.9922 17.3384 21.1656 17.3384 21.3389C17.3384 21.5123 17.2984 21.6856 17.2317 21.8457Z" fill="white"/>
</svg>
