<svg width="32" height="32" viewBox="0 0 32 32" fill="none"
  xmlns="http://www.w3.org/2000/svg">
  <path fill-rule="evenodd" clip-rule="evenodd" d="M16.0002 28C22.6277 28 28.0002 22.6274 28.0002 16C28.0002 9.37258 22.6277 4 16.0002 4C9.37283 4 4.00024 9.37258 4.00024 16C4.00024 22.6274 9.37283 28 16.0002 28ZM21.4087 12.1421C21.8343 12.5685 21.8337 13.2592 21.4073 13.6848L15.2219 19.8594C14.7957 20.2848 14.1055 20.2845 13.6798 19.8587L10.5925 16.7714C10.1665 16.3454 10.1665 15.6547 10.5925 15.2287C11.0185 14.8026 11.7092 14.8026 12.1353 15.2287L14.4518 17.5452L19.8659 12.1407C20.2923 11.7151 20.983 11.7157 21.4087 12.1421Z" fill="white"/>
</svg>
