<svg width="32" height="32" viewBox="0 0 32 32" fill="none" xmlns="http://www.w3.org/2000/svg">
<path fill-rule="evenodd" clip-rule="evenodd" d="M10.667 4C11.403 4.0002 11.9777 4.61313 12.2188 5.30859C12.761 6.87477 14.2494 8 16 8C17.7506 7.99998 19.239 6.87477 19.7812 5.30859C20.0223 4.61311 20.597 4.00016 21.333 4H22.667C26.3487 4.0002 29.333 6.98522 29.333 10.667V13.333C29.333 14.8056 28.1396 15.9998 26.667 16H25.333V21.333C25.333 25.0148 22.3487 27.9998 18.667 28H13.333C9.65124 27.9998 6.66699 25.0148 6.66699 21.333V16H5.33301C3.86038 15.9998 2.66699 14.8057 2.66699 13.333V10.667C2.66699 6.98519 5.65124 4.00015 9.33301 4H10.667ZM16.0498 12.5C14.1998 12.5001 12.7004 13.9997 12.7002 15.8496C12.7002 17.6997 14.1997 19.2001 16.0498 19.2002C17.9 19.2002 19.4004 17.6998 19.4004 15.8496C19.4002 13.9996 17.8998 12.5 16.0498 12.5Z" fill="white"/>
</svg>
