<svg width="520" height="310" viewBox="0 0 520 310" fill="none" xmlns="http://www.w3.org/2000/svg">
<g clip-path="url(#clip0_718_7666)">
<path d="M429.059 13.8818C409.556 4.99045 387.917 0 365.108 0H154.879C132.083 0 110.444 4.99045 90.9274 13.8818C37.3522 38.296 0 92.3436 0 155C0 217.656 37.3522 271.704 90.9409 296.118C110.444 305.01 132.083 310 154.892 310H365.121C387.917 310 409.556 305.01 429.073 296.118C482.648 271.704 520.013 217.656 520.013 155C520.013 142.934 518.952 131.191 516.331 119.919C505.349 72.6373 472.339 33.588 429.073 13.8818H429.059Z" fill="#E6E6E6"/>
<path d="M268.333 106.642C259.435 92.8275 247.003 82.0933 231.008 74.4395C215.013 66.7857 196.344 62.9655 174.973 62.9655C153.602 62.9655 134.919 66.7992 118.938 74.4395C102.943 82.0933 90.5106 92.8275 81.6128 106.642C72.7283 120.457 68.2794 136.585 68.2794 155C68.2794 173.415 72.7283 189.543 81.6128 203.357C90.5106 217.172 102.943 227.906 118.938 235.56C134.933 243.214 153.602 247.034 174.973 247.034C196.344 247.034 215.027 243.2 231.008 235.56C247.003 227.906 259.435 217.172 268.333 203.357C277.218 189.543 281.667 173.428 281.667 155C281.667 136.571 277.218 120.457 268.333 106.642Z" fill="white"/>
</g>
<defs>
<clipPath id="clip0_718_7666">
<rect width="520" height="310" fill="white"/>
</clipPath>
</defs>
</svg>
