<svg width="32" height="32" viewBox="0 0 32 32" fill="none" xmlns="http://www.w3.org/2000/svg">
<path fill-rule="evenodd" clip-rule="evenodd" d="M23.2849 3.00223L23.291 3.00735L23.9742 5.13159L23.9813 5.13056L24.2198 5.87379L8.00005 11.062L25 11.0692L24.9474 11.1388V11.1501L24.9454 11.2463V14.5386L24.8747 14.6318V14.6349L24.523 15.1017H24.5199L16.3752 25.8897H24.9454V30H6.76404V27.7365L15.2312 17.0038L15.2494 17.0079L16.7431 15.1119L7.17941 15.1242L7.17739 14.8181L7.17638 14.8191L7.17234 12.1185L7.17335 12.1165L7.17234 11.3057L7.17335 11.3047L7.17234 11.062H7.18649L7.1491 10.9464L7.14505 10.9484L7.13495 10.9023L6.0283 7.48002L6 7.46057L22.9636 2L23.2849 3.00223ZM11.7879 14.339L17.2888 14.3318L19.015 11.8165L13.7284 11.8145L11.7879 14.339ZM11.9345 6.33856L14.359 8.20891L19.5921 6.53409L16.9553 4.72209L11.9345 6.33856Z" fill="white"/>
</svg>
