<svg xmlns="http://www.w3.org/2000/svg" width="32" height="32" fill="none">
  <path d="M16.001 2.667C8.635 2.667 2.668 8.634 2.668 16c0 5.9 3.817 10.884 9.117 12.65.666.117.916-.283.916-.633 0-.317-.016-1.367-.016-2.483-3.35.616-4.217-.817-4.484-1.567-.15-.383-.8-1.567-1.366-1.883-.467-.25-1.134-.867-.017-.884 1.05-.016 1.8.967 2.05 1.367 1.2 2.017 3.117 1.45 3.883 1.1.117-.867.467-1.45.85-1.783-2.966-.334-6.066-1.484-6.066-6.584 0-1.45.516-2.65 1.366-3.583-.133-.333-.6-1.7.134-3.533 0 0 1.116-.35 3.666 1.366 1.067-.3 2.2-.45 3.334-.45 1.133 0 2.266.15 3.333.45 2.55-1.733 3.667-1.366 3.667-1.366.733 1.833.266 3.2.133 3.533.85.933 1.367 2.117 1.367 3.583 0 5.117-3.117 6.25-6.084 6.584.484.416.9 1.216.9 2.466 0 1.784-.016 3.217-.016 3.667 0 .35.25.767.916.633A13.355 13.355 0 0 0 29.335 16c0-7.366-5.967-13.333-13.334-13.333Z"/>
</svg>