<svg fill="none"
  xmlns="http://www.w3.org/2000/svg" viewBox="0 0 32 32">
  <path d="M15.018 9.817c1.75-1.757 4.6-1.757 6.369.005a4.495 4.495 0 0 1 .715 5.43 1.5 1.5 0 1 0 2.6 1.497c1.652-2.868 1.267-6.598-1.199-9.053-2.93-2.919-7.68-2.939-10.61.004a7.519 7.519 0 0 0-1.196 9.048 1.5 1.5 0 0 0 2.6-1.496 4.519 4.519 0 0 1 .721-5.435Z" />
  <path d="M9.051 16.743a1.5 1.5 0 1 0-2.606-1.486 7.26 7.26 0 0 0 1.176 8.71c2.83 2.843 7.42 2.823 10.25.004a7.237 7.237 0 0 0 1.18-8.714 1.5 1.5 0 1 0-2.606 1.487 4.237 4.237 0 0 1-.69 5.101c-1.669 1.662-4.359 1.662-6.008.005a4.261 4.261 0 0 1-.696-5.107Z" />
</svg>