<svg width="32" height="32" viewBox="0 0 32 32" fill="none" xmlns="http://www.w3.org/2000/svg">
<path fill-rule="evenodd" clip-rule="evenodd" d="M13.333 4C18.3613 4 20.8754 4.00044 22.4375 5.5625C23.0765 6.20154 23.4497 7.00078 23.6729 8.06543C27.6159 8.56055 30.667 11.9227 30.667 16C30.667 20.0772 27.6158 23.4384 23.6729 23.9336C23.4497 24.9988 23.0768 25.7982 22.4375 26.4375C20.8754 27.9996 18.3613 28 13.333 28C8.3051 28 5.79156 27.9994 4.22949 26.4375C2.66739 24.8754 2.66699 22.3613 2.66699 17.333V14.667C2.66699 9.63868 2.66739 7.1246 4.22949 5.5625C5.79156 4.00057 8.3051 4 13.333 4ZM23.957 10.8242C23.9975 11.912 24 13.1796 24 14.667V17.333C24 18.8198 23.9974 20.0873 23.957 21.1748C26.2789 20.5977 28 18.5004 28 16C28 13.4995 26.2791 11.4012 23.957 10.8242ZM13.3496 12.5C11.4998 12.5002 10.0002 13.9998 10 15.8496C10 17.6996 11.4996 19.2 13.3496 19.2002C15.1998 19.2002 16.7002 17.6998 16.7002 15.8496C16.7 13.9996 15.1996 12.5 13.3496 12.5Z" fill="white"/>
</svg>
