<svg width="32" height="32" viewBox="0 0 32 32" fill="none" xmlns="http://www.w3.org/2000/svg">
<path d="M29.3334 14.333C29.8801 14.333 30.3334 13.8797 30.3334 13.333V11.9997C30.3334 6.11967 28.5467 4.33301 22.6667 4.33301H14.3334V7.33301C14.3334 7.87967 13.8801 8.33301 13.3334 8.33301C12.7867 8.33301 12.3334 7.87967 12.3334 7.33301V4.33301H9.33342C3.45341 4.33301 1.66675 6.11967 1.66675 11.9997V12.6663C1.66675 13.213 2.12008 13.6663 2.66675 13.6663C3.94675 13.6663 5.00008 14.7197 5.00008 15.9997C5.00008 17.2797 3.94675 18.333 2.66675 18.333C2.12008 18.333 1.66675 18.7863 1.66675 19.333V19.9997C1.66675 25.8797 3.45341 27.6663 9.33342 27.6663H12.3334V24.6663C12.3334 24.1197 12.7867 23.6663 13.3334 23.6663C13.8801 23.6663 14.3334 24.1197 14.3334 24.6663V27.6663H22.6667C28.5467 27.6663 30.3334 25.8797 30.3334 19.9997C30.3334 19.453 29.8801 18.9997 29.3334 18.9997C28.0534 18.9997 27.0001 17.9463 27.0001 16.6663C27.0001 15.3863 28.0534 14.333 29.3334 14.333ZM14.3334 18.893C14.3334 19.4397 13.8801 19.893 13.3334 19.893C12.7867 19.893 12.3334 19.4397 12.3334 18.893V13.1063C12.3334 12.5597 12.7867 12.1063 13.3334 12.1063C13.8801 12.1063 14.3334 12.5597 14.3334 13.1063V18.893Z" fill="white"/>
</svg>
