<svg width="146" height="86" viewBox="0 0 146 86" fill="none" xmlns="http://www.w3.org/2000/svg">
<path d="M120.467 3.85416C114.992 1.38815 108.914 0 102.514 0H43.4862C37.0863 0 31.0085 1.38815 25.5335 3.85416C10.4876 10.6234 0 25.6155 0 43C0 60.3845 10.4876 75.3766 25.5335 82.1458C31.0085 84.6118 37.0863 86 43.4862 86H102.514C108.914 86 114.992 84.6118 120.467 82.1458C135.512 75.3766 146 60.3764 146 43C146 39.6521 145.703 36.394 144.968 33.2666C141.888 20.1445 132.614 9.31694 120.467 3.84599V3.85416Z" fill="#2ECC71"/>
<path d="M123.093 29.5845C120.599 25.7549 117.106 22.7744 112.613 20.6514C108.121 18.5283 102.877 17.4668 96.8819 17.4668C90.8866 17.4668 85.6346 18.5283 81.1505 20.6514C76.6582 22.7744 73.1651 25.7549 70.6713 29.5845C68.1774 33.4142 66.9304 37.8889 66.9304 43.0006C66.9304 48.1123 68.1774 52.5788 70.6713 56.4167C73.1651 60.2463 76.6582 63.2268 81.1505 65.3498C85.6429 67.4729 90.8866 68.5344 96.8819 68.5344C102.877 68.5344 108.129 67.4729 112.613 65.3498C117.106 63.2268 120.599 60.2463 123.093 56.4167C125.586 52.587 126.833 48.1123 126.833 43.0006C126.833 37.8889 125.586 33.4224 123.093 29.5845Z" fill="#0B3954"/>
</svg>
