<svg width="180" height="180" viewBox="0 0 180 180" fill="none" xmlns="http://www.w3.org/2000/svg">
<rect width="180" height="180" fill="black"/>
<path d="M134.215 53.5853C129.115 51.2913 123.454 50 117.492 50H62.5077C56.5462 50 50.8846 51.2913 45.7846 53.5853C31.7692 59.8823 22 73.8283 22 90C22 106.172 31.7692 120.118 45.7846 126.415C50.8846 128.709 56.5462 130 62.5077 130H117.492C123.454 130 129.115 128.709 134.215 126.415C148.231 120.118 158 106.164 158 90C158 86.8857 157.723 83.8549 157.038 80.9457C154.169 68.7391 145.531 58.6669 134.215 53.5777V53.5853Z" fill="#2ECC71"/>
<path d="M136.662 77.5204C134.338 73.9579 131.085 71.1854 126.9 69.2104C122.715 67.2355 117.831 66.248 112.246 66.248C106.662 66.248 101.769 67.2355 97.5923 69.2104C93.4077 71.1854 90.1539 73.9579 87.8308 77.5204C85.5077 81.0828 84.3462 85.2454 84.3462 90.0004C84.3462 94.7555 85.5077 98.9104 87.8308 102.48C90.1539 106.043 93.4077 108.815 97.5923 110.79C101.777 112.765 106.662 113.753 112.246 113.753C117.831 113.753 122.723 112.765 126.9 110.79C131.085 108.815 134.338 106.043 136.662 102.48C138.985 98.918 140.146 94.7555 140.146 90.0004C140.146 85.2454 138.985 81.0904 136.662 77.5204Z" fill="#0B3954"/>
</svg>
