<svg width="24" height="24" viewBox="0 0 24 24" fill="white" xmlns="http://www.w3.org/2000/svg">
<symbol id="play">
<path d="M14.0881 19.4444C13.3172 20.2435 12.4638 20.9318 11.7487 21.4534C11.2545 21.8142 10.6645 22 10.0645 22C9.72443 22 9.38191 21.9408 9.05105 21.8192C6.91175 21.0376 3.26317 19.3161 2.86481 16.5755L2.03225 10.8527C1.81641 9.36537 2.7023 7.9205 4.13906 7.41639C4.98328 7.12058 5.82167 6.87894 6.64589 6.69395L6.13086 10.2361C6.09086 10.5103 6.07336 10.7811 6.07669 11.0485C5.48082 11.1402 5.04912 11.7185 4.88744 12.4767C4.83327 12.73 5.04912 12.9592 5.30497 12.9225L6.37088 12.77C6.6559 13.6375 7.12843 14.4599 7.7093 15.224C6.79924 15.6806 6.14919 16.5497 5.85918 17.5754C5.75083 17.9596 6.18753 18.2662 6.51922 18.0445C7.44928 17.4229 8.31101 17.0538 9.23857 16.908C9.88944 17.5238 10.5787 18.0795 11.2429 18.5653C12.0321 19.1428 12.9663 19.4486 13.9439 19.4486C13.9922 19.4486 14.0397 19.4477 14.0881 19.4461V19.4444ZM11.8112 7.68803L13.868 7.98217C14.1239 8.01883 14.3397 7.78968 14.2856 7.53637C14.1231 6.77478 13.688 6.194 13.0863 6.10651C12.4838 6.01985 11.9046 6.45648 11.5346 7.14308C11.412 7.37056 11.5554 7.65136 11.8112 7.68803ZM21.9677 6.63479L21.1344 12.3576C20.7352 15.0982 17.0883 16.8188 14.9489 17.6013C14.6214 17.7212 14.2814 17.7796 13.943 17.7796C13.3338 17.7796 12.7321 17.5888 12.2263 17.218C10.3945 15.8772 7.38011 13.2192 7.7793 10.4744L8.61186 4.75164C8.82771 3.26845 10.087 2.12772 11.6062 2.0394C13.0722 1.95607 14.4814 2.0044 15.7957 2.18938C17.1099 2.37436 18.4775 2.71267 19.8601 3.19762C21.2977 3.70174 22.1836 5.14743 21.9677 6.63479ZM16.9799 10.7452C15.0956 11.1827 13.6664 10.9794 11.9804 10.0336C11.6212 9.83199 11.1937 10.1811 11.3379 10.5669C11.8021 11.8093 12.8013 12.7642 14.1114 12.9492C15.4215 13.135 16.6507 12.4984 17.4449 11.4335C17.69 11.1052 17.3791 10.6527 16.9799 10.7452ZM18.175 8.09132C18.0125 7.32973 17.5775 6.74895 16.9757 6.66146C16.3732 6.5748 15.794 7.01142 15.424 7.69803C15.3015 7.9255 15.444 8.20631 15.6998 8.24297L17.7566 8.53711C18.0125 8.57378 18.2292 8.34463 18.175 8.09132Z"/>
</symbol>
</svg>
