<svg xmlns="http://www.w3.org/2000/svg" fill="white" viewBox="0 0 28 28">
  <symbol id="copy_button">
    <path d="M17.76 6.84 15 4.08V10h-2V4.08l-2.76 2.76a1.006 1.006 0 0 1-1.413 0 1.006 1.006 0 0 1 0-1.413L13.293.96a1.006 1.006 0 0 1 1.414 0l4.466 4.467a1.006 1.006 0 0 1 0 1.413c-.2.2-.453.293-.706.293a.989.989 0 0 1-.707-.293ZM15 10h5.4c4.267 0 6.933 2.667 6.92 6.933V20.4c0 4.267-2.667 6.933-6.933 6.933H7.6c-4.267 0-6.933-2.666-6.933-6.946v-3.454C.667 12.667 3.333 10 7.6 10H13v8.333c0 .547.453 1 1 1 .547 0 1-.453 1-1V10Z"/>
  </symbol>
</svg>