<svg fill="none" xmlns="http://www.w3.org/2000/svg" viewBox="0 0 32 32"><path d="M22.333 2.667v2.08c3.6.333 5.347 2.48 5.614 5.667.04.373-.28.706-.667.706H4.72a.67.67 0 0 1-.667-.706C4.32 7.227 6.067 5.08 9.667 4.747v-2.08c0-.547.453-1 1-1 .546 0 1 .453 1 1v2h8.666v-2c0-.547.454-1 1-1 .547 0 1 .453 1 1Z" /><path fill-rule="evenodd" clip-rule="evenodd" d="M5.333 13.12h21.334c.733 0 1.333.6 1.333 1.334v8.213c0 4-2 6.667-6.667 6.667H10.667C6 29.334 4 26.667 4 22.667v-8.213c0-.734.6-1.334 1.333-1.334Zm6.88 11.217.067-.057c.24-.253.387-.6.387-.946 0-.347-.147-.694-.387-.947l-.2-.16a1.012 1.012 0 0 0-.24-.12.85.85 0 0 0-.24-.08 1.275 1.275 0 0 0-.773.08c-.174.067-.307.16-.44.28-.24.253-.387.6-.387.947 0 .346.147.693.387.946.133.12.266.214.44.28.16.067.333.107.506.107.083 0 .155-.01.236-.022l.031-.005a.85.85 0 0 0 .24-.08c.08-.026.16-.066.24-.12.044-.026.089-.065.133-.103ZM11.333 20c.347 0 .694-.146.947-.386.24-.254.387-.6.387-.947s-.147-.693-.387-.947a1.244 1.244 0 0 0-.44-.28 1.331 1.331 0 0 0-1.453.28c-.24.254-.387.6-.387.947s.147.693.387.947c.253.24.6.386.946.386ZM16 24.667c.347 0 .693-.147.947-.387.24-.253.386-.6.386-.946 0-.347-.146-.694-.386-.947-.494-.493-1.4-.493-1.894 0-.24.253-.386.6-.386.947 0 .346.146.693.386.946.254.24.6.387.947.387Zm.747-4.893.2-.16c.24-.254.386-.6.386-.947s-.146-.693-.386-.947a1.332 1.332 0 0 0-1.454-.28c-.173.067-.32.16-.44.28-.24.254-.386.6-.386.947s.146.693.386.947c.254.24.6.386.947.386a1.577 1.577 0 0 0 .267-.026c.08-.014.16-.04.24-.08.08-.027.16-.067.24-.12Zm3.92 4.893c.346 0 .693-.147.946-.387.24-.253.387-.6.387-.946 0-.347-.147-.694-.387-.947-.493-.493-1.4-.493-1.893 0-.24.253-.387.6-.387.947 0 .346.147.693.387.946.253.24.6.387.947.387Zm.746-4.893.2-.16c.24-.254.387-.6.387-.947s-.147-.693-.387-.947l-.2-.16a1.005 1.005 0 0 0-.24-.12.846.846 0 0 0-.24-.08 1.274 1.274 0 0 0-.773.08c-.173.067-.307.16-.44.28-.24.254-.387.6-.387.947s.147.693.387.947c.253.24.6.386.947.386.08 0 .173-.013.266-.026.08-.014.16-.04.24-.08.08-.027.16-.067.24-.12Z" /></svg>