<svg fill="#fff"
  xmlns="http://www.w3.org/2000/svg" viewBox="0 0 32 32">
  <path fillRule="evenodd" clipRule="evenodd" d="M22.187 7.829c2.679 0 4.525.597 5.63 1.792 1.223 1.321 1.248 3.075 1.145 4.358-.007.043-.01.08-.013.114-.003.039-.007.075-.014.115l-.064.598-.021.18a.624.624 0 0 1-.261.44c-.488.345-1.023.696-1.539.98a2.255 2.255 0 0 0-.062.039c-.04.025-.08.05-.133.076a22.21 22.21 0 0 1-7.528 2.643c-.091 1.233-.65 2.618-3.498 2.618-2.847 0-3.38-1.398-3.497-2.592A22.67 22.67 0 0 1 5.18 16.8a8.159 8.159 0 0 1-.572-.317c-.313-.17-.835-.499-1.147-.698a.626.626 0 0 1-.287-.467l-.1-1.034-.014-.089c-.13-1.283-.169-3.164 1.118-4.562C5.285 8.44 7.118 7.842 9.81 7.842h.312v-.064c0-2.122 0-4.778 4.89-4.778h1.976c4.888 0 4.888 2.643 4.888 4.778v.051h.312Zm-6.37 12.047c1.599 0 1.599-.203 1.599-1.55v-1.589h-3.199v1.601c0 1.296 0 1.538 1.6 1.538ZM11.98 7.778v.064h8.035v-.064c0-2.147 0-2.96-3.03-2.96H15.01c-3.03 0-3.03.8-3.03 2.96Z" />
  <path d="M28.479 18.842c.046-.496-.484-.852-.943-.638-1.55.72-4.46 2.02-6.254 2.48a.74.74 0 0 0-.48.4c-.793 1.654-2.526 2.566-4.973 2.566-2.472 0-4.183-.878-4.972-2.527a.737.737 0 0 0-.48-.4c-1.69-.432-4.424-1.595-5.905-2.25-.459-.203-.976.153-.93.643l.442 4.763C4.257 26.408 5.324 29 11.044 29h9.908c5.72 0 6.787-2.592 7.06-5.134l.467-5.024Z" />
</svg>