<svg fill="none" xmlns="http://www.w3.org/2000/svg" viewBox="0 0 32 32"><path d="M25.722 8h.945C27.403 8 28 8.597 28 9.333v9.333c0 .737-.597 1.334-1.333 1.334H24l-5.557-7.781a2.667 2.667 0 0 0-2.937-1.005l-3.313.995a2.667 2.667 0 0 1-2.652-.669l-.39-.39a1.333 1.333 0 0 1 .203-2.053l7.201-4.8a2.667 2.667 0 0 1 2.91-.031l5.541 3.525c.214.136.462.209.716.209ZM6.702 19.06 4.55 20.943a1.333 1.333 0 0 0 .054 2.052l6.854 5.386c.64.503 1.578.32 1.981-.387l.939-1.643a2.667 2.667 0 0 0-.342-3.117l-3.603-3.963a2.667 2.667 0 0 0-3.73-.213ZM9.395 6.665H4c-.736 0-1.333.597-1.333 1.334v10.02c0 .545.166 1.07.467 1.508.032-.03.064-.06.098-.089l2.154-1.885a4.667 4.667 0 0 1 6.526.373l3.603 3.963a4.667 4.667 0 0 1 .598 5.455l-.872 1.526c.75.285 1.606.22 2.318-.206l5.879-3.528c.667-.4.85-1.285.399-1.918l-7.022-9.838a.667.667 0 0 0-.735-.25l-3.313.993a4.667 4.667 0 0 1-4.641-1.17l-.39-.39a3.333 3.333 0 0 1 .508-5.13l1.15-.768Z" /></svg>