<svg fill="#fff"
  xmlns="http://www.w3.org/2000/svg" viewBox="0 0 32 32">
  <path d="m12.267 22.4 2.466-2.466a1.336 1.336 0 0 0-.013-1.907c-.067-.067-.137-.133-.207-.2-.07-.067-.14-.133-.207-.2a45.607 45.607 0 0 1-1.933-2.107c-.586-.693-1-1.266-1.24-1.706a1.87 1.87 0 0 0-.053-.134c-.017-.04-.035-.084-.053-.133a1.21 1.21 0 0 1-.04-.307c0-.213.066-.386.213-.533l1.013-1.053c.32-.32.574-.64.747-.947a1.81 1.81 0 0 0 .28-.947c0-.253-.067-.533-.187-.813-.12-.293-.293-.6-.533-.933l-3.093-4.36a2.173 2.173 0 0 0-.894-.747 2.506 2.506 0 0 0-1.08-.24c-.987 0-1.92.413-2.773 1.253-.707.667-1.213 1.414-1.533 2.227-.32.8-.48 1.667-.48 2.573 0 1.387.32 2.84.946 4.36.64 1.507 1.52 3.027 2.613 4.547a37.888 37.888 0 0 0 3.72 4.36l.22.213c.074.07.147.14.22.214a1.34 1.34 0 0 0 1.88-.014ZM29.093 25.574c.134-.374.2-.76.2-1.134 0-.373-.08-.706-.213-1.04-.147-.333-.387-.613-.733-.853l-4.414-3.133c-.333-.227-.64-.4-.933-.52a2.128 2.128 0 0 0-.814-.174c-.333 0-.64.094-.946.28-.307.16-.627.414-.96.747l-1.014 1a.734.734 0 0 1-.546.227.92.92 0 0 1-.333-.054l-.12-.053a2.646 2.646 0 0 0-.12-.053 7.492 7.492 0 0 1-.987-.64l-4.36 4.36c.493.413 1.013.8 1.533 1.186 1.52 1.107 3.054 1.987 4.587 2.64 1.533.654 2.986.974 4.346.974.92 0 1.774-.174 2.56-.494.007 0 .014-.003.02-.006a.046.046 0 0 1 .02-.007c.814-.333 1.534-.853 2.187-1.573.387-.427.68-.88.907-1.36.053-.107.093-.214.133-.32Z" />
</svg>