<svg fill="none" xmlns="http://www.w3.org/2000/svg" viewBox="0 0 32 32"><path d="M21.147 7.347c.506 0 .813-.56.453-.92a.181.181 0 0 0-.027-.02.176.176 0 0 1-.026-.02l-2.334-2.36a4.7 4.7 0 0 0-6.613 0L10.44 6.2c-.427.414-.12 1.134.467 1.134l10.24.013ZM23.987 16.92a2.693 2.693 0 0 0-.72 2.64c.346 1.24 1.56 2.027 2.84 2.027h1.16c.733 0 1.333.6 1.333 1.333v.254a5.025 5.025 0 0 1-5.013 5.013H8.28a5.025 5.025 0 0 1-5.013-5.013V14.2c0-1.64.786-3.093 2-4A4.942 4.942 0 0 1 8.28 9.187h15.307A5.025 5.025 0 0 1 28.6 14.2v.587c0 .733-.6 1.333-1.333 1.333h-1.36c-.747 0-1.427.294-1.92.8Z" /><path d="M28.6 18.187v1.333c0 .36-.28.654-.654.667H26c-.707 0-1.347-.52-1.4-1.213-.04-.414.12-.8.386-1.067.24-.253.574-.387.934-.387h2.013a.668.668 0 0 1 .667.667Z" /></svg>