<svg fill="#fff"
  xmlns="http://www.w3.org/2000/svg" viewBox="0 0 32 32">
  <path d="M18.715 25.678c-1.003 1.039-2.112 1.933-3.042 2.611-.642.47-1.41.711-2.19.711-.441 0-.886-.077-1.317-.235-2.78-1.016-7.524-3.254-8.042-6.817l-1.082-7.44c-.28-1.933.871-3.811 2.739-4.467a29.234 29.234 0 0 1 3.259-.939l-.67 4.605a6.72 6.72 0 0 0-.07 1.056c-.775.12-1.336.871-1.546 1.857-.07.33.21.627.542.58L8.682 17c.37 1.128.985 2.197 1.74 3.19-1.183.594-2.028 1.724-2.405 3.057-.14.5.427.898.858.61 1.21-.808 2.33-1.288 3.535-1.478a27 27 0 0 0 2.606 2.155 5.91 5.91 0 0 0 3.699 1.145v-.002Zm-2.96-15.284 2.673.383a.484.484 0 0 0 .543-.58c-.211-.99-.777-1.745-1.559-1.859-.783-.112-1.536.455-2.017 1.348-.16.296.027.66.36.708Zm13.203-1.369-1.083 7.44c-.52 3.563-5.26 5.8-8.041 6.817a3.796 3.796 0 0 1-1.308.231 3.77 3.77 0 0 1-2.232-.73c-2.381-1.743-6.3-5.198-5.78-8.766l1.081-7.44c.281-1.928 1.918-3.411 3.893-3.526 1.906-.108 3.738-.045 5.446.195 1.709.24 3.487.68 5.284 1.31 1.869.656 3.02 2.536 2.74 4.47Zm-6.484 5.344c-2.45.569-4.308.304-6.5-.925-.466-.262-1.022.191-.835.693.604 1.615 1.903 2.857 3.606 3.097 1.703.241 3.3-.586 4.333-1.97.319-.427-.085-1.015-.604-.895Zm1.553-3.45c-.21-.99-.776-1.745-1.559-1.86-.783-.112-1.536.456-2.017 1.348-.16.296.026.661.359.709l2.674.382a.485.485 0 0 0 .543-.58Z"/>
</svg>