<svg fill="#fff"
  xmlns="http://www.w3.org/2000/svg" viewBox="0 0 24 24">
  <g clip-path="url(#a)" >
    <path d="M15.93 21.643a.631.631 0 0 1-.563.357.626.626 0 0 1-.278-.07L12 20.34l-3.09 1.59a.626.626 0 0 1-.277.07.631.631 0 0 1-.564-.357.653.653 0 0 1 .286-.878l3.014-1.556V17h1.262v2.209l3.014 1.556c.32.157.446.548.286.878ZM4 3v11.293C4 16.067 4.889 17 6.578 17h10.844c1.69 0 2.578-.933 2.578-2.707V3H4Zm12.427 6.141-2.8 2.455a1.08 1.08 0 0 1-.898.261 1.103 1.103 0 0 1-.765-.56l-.933-1.633-2.604 2.277A.626.626 0 0 1 8 12.1a.662.662 0 0 1-.516-.252.723.723 0 0 1 .09-.99l2.8-2.454a1.08 1.08 0 0 1 .897-.261c.32.056.596.261.765.56l.933 1.633 2.604-2.277a.645.645 0 0 1 .943.093.732.732 0 0 1-.09.99Z"/>
    <path d="M21.302 3.5H2.698C2.316 3.5 2 3.16 2 2.75S2.316 2 2.698 2h18.604c.382 0 .698.34.698.75s-.316.75-.698.75Z"/>
  </g>
  <defs>
    <clipPath id="a">
      <path d="M0 0h24v24H0z"/>
    </clipPath>
  </defs>
</svg>