<svg fill="#fff" xmlns="http://www.w3.org/2000/svg" viewBox="0 0 32 32"><path d="M26.387 5.627c-3.947-3.934-10.347-3.934-14.267 0C9.36 8.36 8.533 12.293 9.6 15.76l-6.267 6.267c-.44.453-.746 1.346-.653 1.986l.4 2.907c.147.96 1.04 1.867 2 2l2.907.4c.64.093 1.533-.2 1.986-.667l1.094-1.093a.66.66 0 0 0 0-.947L8.48 24.027a1.006 1.006 0 0 1 0-1.414 1.006 1.006 0 0 1 1.413 0l2.6 2.6c.254.254.68.254.934 0l2.826-2.813a10.1 10.1 0 0 0 10.134-2.493c3.933-3.934 3.933-10.347 0-14.28ZM19.333 16a3.334 3.334 0 0 1 0-6.667 3.335 3.335 0 0 1 0 6.667Z" /></svg>