<svg fill="#fff"
  xmlns="http://www.w3.org/2000/svg" viewBox="0 0 24 24">
  <path fill-rule="evenodd" clip-rule="evenodd" d="M20.416 10.621a5.04 5.04 0 0 1-1.75 1.134 7.17 7.17 0 0 1-5.925 4.375v2.248h2.222c1.086 0 1.975.87 1.975 1.932v.241h.988c.405 0 .74.329.74.725a.738.738 0 0 1-.74.724H6.074a.738.738 0 0 1-.74-.724c0-.396.335-.725.74-.725h.988v-.241c0-1.063.889-1.932 1.975-1.932h2.222V16.13a7.17 7.17 0 0 1-5.926-4.375 5.041 5.041 0 0 1-1.749-1.134C2.628 9.58 2 8.335 2 6.877c0-1.457 1.163-2.6 2.644-2.6h.576A4.116 4.116 0 0 1 8.914 2h6.172c1.626 0 3.025.931 3.694 2.277h.576c1.481 0 2.644 1.143 2.644 2.6 0 1.458-.628 2.702-1.584 3.744Zm-6.132-1.325.638-.77c.401-.465.226-.98-.37-1.133l-.978-.242a.816.816 0 0 1-.422-.314l-.545-.83c-.34-.516-.874-.516-1.214 0l-.545.83a.816.816 0 0 1-.422.314l-.977.242c-.597.152-.772.668-.37 1.134l.637.769a.752.752 0 0 1 .165.486l-.062.991c-.041.607.401.921.977.698l.937-.364a.962.962 0 0 1 .534 0l.937.364c.576.223 1.018-.09.977-.698l-.062-.991a.753.753 0 0 1 .165-.486Z"/>
</svg>