<svg fill="none"
  xmlns="http://www.w3.org/2000/svg" viewBox="0 0 32 32">
  <path fill-rule="evenodd" clip-rule="evenodd" d="M28 3.667h1.333c.547 0 1-.453 1-1 0-.547-.453-1-1-1H2.667c-.547 0-1 .453-1 1 0 .547.453 1 1 1H4V18.8c0 2.534 1.333 3.867 3.867 3.867H15v3.387l-4.774 2.386a.987.987 0 0 0-.453 1.347c.174.347.534.547.893.547.147 0 .307-.04.44-.107L16 27.787l4.893 2.44c.133.067.293.107.44.107.36 0 .72-.2.894-.547a.987.987 0 0 0-.454-1.347L17 26.054v-3.387h7.133c2.534 0 3.867-1.333 3.867-3.867V3.667Zm-5.36 7.773-4.2 3.507c-.387.32-.88.453-1.347.373a1.651 1.651 0 0 1-1.146-.8l-1.4-2.333-3.907 3.253a.967.967 0 0 1-.64.227.999.999 0 0 1-.64-1.773l4.2-3.507c.387-.32.88-.453 1.347-.373.48.08.893.373 1.146.8l1.4 2.333 3.907-3.253a.999.999 0 0 1 1.413.133 1.01 1.01 0 0 1-.133 1.413Z" />
</svg>
