<svg fill="none"
  xmlns="http://www.w3.org/2000/svg" viewBox="0 0 32 32">
  <path d="M16 1.714c-3.01 0-5.866.913-8.3 2.655A14.333 14.333 0 0 0 1.713 16c0 7.878 6.408 14.286 14.286 14.286 7.878 0 14.286-6.408 14.286-14.286 0-7.878-6.408-14.286-14.286-14.286ZM20.6 24.571A8.572 8.572 0 0 1 12.027 16a4.603 4.603 0 0 0-4.598-4.598 4.596 4.596 0 0 0-4.599 4.564v.017c0-4.412 2.181-8.335 5.512-10.718A13.167 13.167 0 0 1 16 2.813c7.27 0 13.17 5.9 13.17 13.17 0 .152 0 .304-.017.44A8.565 8.565 0 0 1 20.6 24.57Z" />
  <path fill-rule="evenodd" clip-rule="evenodd" d="M7.283 3.788A14.866 14.866 0 0 1 16 1c8.273 0 15 6.727 15 15s-6.727 15-15 15S1 24.273 1 16c0-4.83 2.343-9.39 6.283-12.212Zm.416.58A14.15 14.15 0 0 1 16 1.715c7.878 0 14.286 6.408 14.286 14.286 0 7.878-6.408 14.286-14.286 14.286-7.878 0-14.286-6.408-14.286-14.286 0-4.598 2.232-8.943 5.985-11.631ZM2.83 15.965c.002-1.112.142-2.194.404-3.227l-.404 3.227Zm.404-3.227a13.204 13.204 0 0 1 5.108-7.472A13.167 13.167 0 0 1 16 2.813c7.27 0 13.17 5.9 13.17 13.17 0 .152 0 .304-.017.44A8.565 8.565 0 0 1 20.6 24.57 8.572 8.572 0 0 1 12.027 16a4.603 4.603 0 0 0-4.598-4.598 4.588 4.588 0 0 0-3.54 1.66 4.578 4.578 0 0 0-1.059 2.902m1.47-4.26A5.318 5.318 0 0 1 12.741 16a7.857 7.857 0 0 0 7.857 7.857c4.2 0 7.64-3.3 7.841-7.469l.002-.027.003-.027a3.07 3.07 0 0 0 .012-.35c0-6.876-5.58-12.457-12.456-12.457-2.702 0-5.195.863-7.244 2.32A12.502 12.502 0 0 0 4.3 11.703Z" />
  <path d="M17.45 17.88a7.719 7.719 0 0 1-.658-2.563l-.03-.616c0-.94-.687-1.709-1.509-1.709-.821 0-1.479.735-1.508 1.658v.085c.015 4.426 3.181 8.032 7.065 8.032 1.51 0 2.913-.547 4.064-1.47.044-.034.09-.085.149-.12a5.472 5.472 0 0 1-2.181.462c-2.345 0-4.392-1.52-5.393-3.76Z" />
  <path d="M20.095 15.635v-.032c0-.61-.413-1.107-.92-1.107-.506 0-.92.497-.92 1.107 0 .064.027.225.027.24.48 2.663 2.452 4.668 4.81 4.668.147 0 .28-.016.427-.016-1.919-.224-3.424-2.181-3.424-4.555-.014-.112 0-.209 0-.305ZM25.774 17.128a1.88 1.88 0 1 1-3.759 0 1.88 1.88 0 0 1 3.76 0Z" />
</svg>
