<svg fill="none"
  xmlns="http://www.w3.org/2000/svg" viewBox="0 0 32 32">
  <path d="M27.973 14.267A11.212 11.212 0 0 0 18.68 3.853 2.005 2.005 0 0 0 16.693 2H15.36c-1.053 0-1.893.813-1.987 1.84-5.173.853-9.053 5.2-9.346 10.427a1.991 1.991 0 0 0-1.667 1.96v1.333c0 1.107.893 2 2 2h1.333c1.107 0 2-.893 2-2v-1.333c0-.987-.72-1.8-1.666-1.96a9.214 9.214 0 0 1 7.413-8.414c.226.854 1 1.48 1.92 1.48h1.333c.92 0 1.68-.626 1.92-1.466 4.053.813 7.08 4.266 7.36 8.4a1.991 1.991 0 0 0-1.666 1.96v1.333c0 1.107.893 2 2 2h1.333c1.107 0 2-.893 2-2v-1.333a1.98 1.98 0 0 0-1.667-1.96Z" />
  <path d="M21.026 22.067 18.84 24h-5.667l-2.187-1.933C9.72 21.027 9.72 20.227 10.68 19l3.853-4.88c.267-.333.573-.56.92-.68.36-.12.747-.12 1.12 0 .333.12.64.347.92.68l3.84 4.867c.973 1.226.92 1.986-.307 3.08ZM14.306 29.333h3.454c1.306 0 2.16-.933 1.906-2.066l-.413-1.854a.81.81 0 0 0-.787-.626H13.6a.8.8 0 0 0-.787.626l-.413 1.854c-.24 1.066.68 2.066 1.906 2.066Z" />
</svg>
