<svg fill="none"
  xmlns="http://www.w3.org/2000/svg" viewBox="0 0 32 32">
  <path fill-rule="evenodd" clip-rule="evenodd" d="m21.8 11.173 5.334-3.813c1.053-.76 2.466.293 2.013 1.533L23.6 24.426c-.186.52-.693.88-1.253.88H9.64c-.56 0-1.066-.346-1.253-.88L2.84 8.893c-.44-1.24.974-2.293 2.04-1.547l5.334 3.814c.706.52 1.706.213 2.013-.614L14.76 3.84c.427-1.16 2.067-1.16 2.494 0l2.52 6.72a1.342 1.342 0 0 0 2.026.613Zm-9.133 8.493h6.667c.546 0 1-.453 1-1 0-.546-.454-1-1-1h-6.667c-.547 0-1 .454-1 1 0 .547.453 1 1 1Z" />
  <path d="M9.334 29.333h13.333c.546 0 1-.453 1-1 0-.547-.454-1-1-1H9.333c-.546 0-1 .453-1 1 0 .547.454 1 1 1Z" />
</svg>
