<svg fill="none"
  xmlns="http://www.w3.org/2000/svg" viewBox="0 0 32 32">
  <path d="M28.2 8.226c-.546-.293-1.693-.6-3.253.494l-1.96 1.386c-.147-4.146-1.947-5.773-6.32-5.773h-8c-4.56 0-6.333 1.773-6.333 6.333v10.667c0 3.067 1.666 6.333 6.333 6.333h8c4.373 0 6.173-1.626 6.32-5.773l1.96 1.387c.826.586 1.547.773 2.12.773.493 0 .88-.147 1.133-.28.547-.28 1.467-1.04 1.467-2.947v-9.653c0-1.907-.92-2.667-1.467-2.947Zm-13.533 6.947a2.512 2.512 0 0 1-2.507-2.507 2.512 2.512 0 0 1 2.507-2.506 2.512 2.512 0 0 1 2.507 2.506 2.512 2.512 0 0 1-2.507 2.507Z" />
</svg>
