<svg fill="none"
  xmlns="http://www.w3.org/2000/svg" viewBox="0 0 32 32">
  <path d="M5.667 9A6.34 6.34 0 0 1 12 2.667 6.34 6.34 0 0 1 18.333 9a6.318 6.318 0 0 1-6.106 6.32h-.094a1.079 1.079 0 0 0-.293 0C8.347 15.2 5.667 12.427 5.667 9ZM5.24 18.867c3.747-2.48 9.813-2.48 13.533 0 1.68 1.12 2.6 2.64 2.614 4.28 0 1.653-.934 3.173-2.614 4.307-1.866 1.253-4.32 1.88-6.773 1.88-2.453 0-4.907-.627-6.773-1.88-1.68-1.12-2.614-2.64-2.614-4.28 0-1.64.934-3.174 2.627-4.307ZM26.653 9.787c.213 2.587-1.627 4.853-4.173 5.16h-.067c-.08 0-.16 0-.227.027-1.293.066-2.48-.347-3.373-1.107 1.373-1.227 2.16-3.067 2-5.067a6.187 6.187 0 0 0-1.027-2.906 4.79 4.79 0 0 1 6.867 3.893Z" />
  <path d="M27 25.294c1.387-.76 2.214-1.88 2.32-3.174.12-1.28-.506-2.52-1.733-3.506-2.28-1.84-5.986-2.414-8.933-1.56 1.133.413 2.173.973 3.067 1.68 1.573 1.266 2.36 2.853 2.226 4.506-.107 1.147-.666 2.227-1.627 3.094 1.667.04 3.347-.307 4.68-1.04Z" />
</svg>
